<?xml version="1.0" standalone="no"?>
<!DOCTYPE svg PUBLIC "-//W3C//DTD SVG 20010904//EN"
 "http://www.w3.org/TR/2001/REC-SVG-20010904/DTD/svg10.dtd">
<svg version="1.0" xmlns="http://www.w3.org/2000/svg"
 width="960.000000pt" height="960.000000pt" viewBox="0 0 960.000000 960.000000"
 preserveAspectRatio="xMidYMid meet">
<metadata>
Created by potrace 1.11, written by Peter Selinger 2001-2013
</metadata>
<g transform="translate(0.000000,960.000000) scale(0.100000,-0.100000)"
fill="#000000" stroke="none">
<path d="M4746 9592 c-6 -10 -230 -122 -244 -122 -6 0 -12 -3 -14 -7 -1 -5
-34 -23 -73 -41 -38 -19 -79 -38 -89 -44 -25 -13 -197 -99 -296 -147 -41 -20
-78 -40 -82 -46 -4 -5 -8 -7 -8 -2 0 4 -12 0 -27 -10 -14 -9 -33 -18 -41 -19
-8 -2 -18 -8 -22 -14 -4 -6 -13 -12 -21 -14 -8 -1 -251 -120 -541 -264 -290
-145 -530 -262 -534 -262 -4 1 -10 -2 -13 -7 -5 -7 -471 -240 -1101 -552 -107
-53 -196 -99 -198 -103 -2 -5 -8 -8 -14 -8 -14 0 -321 -152 -329 -163 -3 -5
-9 -8 -13 -7 -10 2 -200 -94 -204 -103 -2 -4 -7 -5 -12 -2 -4 3 -13 -1 -19 -9
-10 -12 12 -26 124 -80 74 -36 137 -64 139 -63 1 1 10 -4 18 -10 13 -11 127
-69 442 -224 32 -16 65 -34 74 -41 8 -7 17 -12 19 -10 3 3 318 -153 1893 -936
382 -190 697 -347 700 -347 10 -3 65 -30 70 -35 3 -3 19 -11 35 -19 17 -7 39
-18 50 -24 11 -5 27 -14 35 -18 8 -4 84 -42 167 -83 l153 -76 97 48 c54 26
100 50 101 54 2 5 9 8 16 8 7 0 92 40 190 89 97 49 179 90 181 90 3 0 29 13
58 28 153 79 203 103 214 103 6 0 13 3 15 8 4 9 212 112 227 112 6 0 11 4 11
8 0 6 35 25 70 36 25 9 206 103 208 109 2 4 9 7 15 7 15 0 100 42 108 53 3 5
10 9 15 9 15 1 178 81 185 91 3 5 8 8 10 6 2 -1 175 82 384 186 209 104 382
189 385 190 3 0 16 7 30 15 26 15 121 62 130 65 14 4 154 76 165 85 6 5 15 7
18 3 4 -3 7 -1 7 5 0 7 3 11 8 10 7 -1 117 51 172 82 14 8 27 15 30 15 3 0
154 74 335 165 182 90 332 163 334 161 2 -1 7 2 11 9 4 6 13 12 21 13 8 2 21
7 29 12 8 5 49 26 90 46 l75 36 -1210 603 c-666 331 -1493 743 -1840 916 -346
172 -634 313 -639 313 -5 0 -12 3 -15 8 -7 11 -236 123 -250 123 -5 0 -12 -4
-15 -8z"/>
<path d="M400 4462 l0 -2457 458 -228 c252 -125 463 -227 470 -227 7 0 12 -3
12 -7 0 -9 48 -33 66 -33 7 0 14 -3 16 -7 4 -10 212 -113 227 -113 6 0 11 -4
11 -10 0 -5 4 -10 10 -10 14 0 624 -304 628 -312 2 -5 9 -8 15 -8 6 0 261
-125 566 -277 306 -152 558 -278 561 -278 8 -2 182 -89 210 -105 14 -8 27 -15
30 -16 28 -8 70 -30 70 -36 0 -4 5 -8 11 -8 8 0 599 -288 669 -326 9 -4 6
4900 -3 4913 -7 12 -90 53 -104 52 -3 -1 -9 3 -12 8 -5 7 -157 85 -171 88 -15
3 -346 171 -348 178 -2 4 -8 7 -13 7 -15 0 -323 153 -331 165 -4 5 -8 7 -8 3
0 -3 -71 29 -157 73 -87 43 -163 79 -170 79 -7 0 -13 3 -13 8 0 8 -48 32 -66
32 -7 0 -14 3 -16 8 -3 8 -174 92 -188 92 -4 0 -10 3 -12 8 -1 4 -64 36 -138
72 -74 36 -136 68 -138 73 -2 4 -12 7 -23 7 -10 0 -19 5 -19 10 0 6 -5 10 -11
10 -6 0 -346 167 -755 370 -410 204 -749 370 -753 370 -5 0 -14 7 -21 15 -6 8
-15 14 -18 12 -8 -2 -131 60 -149 75 -7 6 -13 8 -13 5 0 -3 -75 33 -167 80
-93 47 -178 89 -190 94 l-23 9 0 -2458z"/>
<path d="M9108 6906 c-16 -5 -28 -13 -28 -18 0 -4 -5 -8 -11 -8 -5 0 -228
-108 -494 -240 -265 -132 -488 -240 -493 -240 -6 0 -12 -3 -14 -7 -3 -8 -218
-116 -228 -115 -3 0 -12 -6 -20 -13 -8 -7 -27 -16 -42 -20 -15 -4 -32 -13 -39
-21 -6 -8 -17 -14 -23 -14 -6 0 -40 -16 -76 -35 -36 -19 -72 -38 -80 -41 -82
-37 -466 -230 -468 -236 -2 -4 -10 -8 -17 -8 -7 0 -38 -13 -69 -29 -31 -17
-56 -27 -56 -23 0 4 -4 2 -8 -4 -7 -11 -217 -115 -228 -113 -4 0 -10 -3 -13
-8 -3 -4 -53 -31 -111 -60 -58 -28 -291 -144 -517 -257 -227 -112 -413 -201
-413 -198 0 4 -4 2 -8 -4 -8 -13 -232 -124 -249 -124 -6 0 -13 -4 -15 -8 -1
-5 -65 -39 -140 -76 l-138 -67 0 -2459 0 -2459 90 45 c50 24 94 44 99 44 5 0
11 3 13 8 4 9 80 46 91 44 4 -1 7 2 7 8 0 6 3 9 8 8 11 -3 846 414 854 426 4
6 8 8 8 4 0 -4 180 83 400 193 220 109 405 199 410 199 6 0 10 5 10 10 0 6 5
10 10 10 6 0 292 140 635 310 344 171 626 309 627 308 2 -2 17 6 33 18 26 17
78 44 95 49 15 4 377 186 387 195 7 5 16 10 20 10 4 0 60 26 123 58 l115 59 0
2452 c0 1349 -2 2454 -5 2455 -3 2 -17 -2 -32 -8z"/>
</g>
</svg>
